<mxfile host="drawio-plugin" modified="2023-06-13T12:17:47.833Z" agent="5.0 (X11; Linux x86_64) AppleWebKit/537.36 (KHTML, like Gecko) Chrome/104.0.5112.102 Safari/537.36" etag="Skyo6gomVAD-FuXvs2L6" version="20.5.3" type="embed"><diagram name="Page-1" id="e0zhHLYgIgtwcOG-t7Id"><mxGraphModel dx="1418" dy="2018" grid="1" gridSize="10" guides="1" tooltips="1" connect="1" arrows="1" fold="1" page="1" pageScale="1" pageWidth="827" pageHeight="1169" background="#ffffff" math="0" shadow="0"><root><mxCell id="0"/><mxCell id="1" parent="0"/><mxCell id="13" style="edgeStyle=orthogonalEdgeStyle;rounded=0;orthogonalLoop=1;jettySize=auto;html=1;fontSize=16;" parent="1" source="n-Uu8OFauGkaStc5CKsw-1" edge="1"><mxGeometry relative="1" as="geometry"><mxPoint x="420.0344827586207" y="90" as="targetPoint"/></mxGeometry></mxCell><mxCell id="21" style="edgeStyle=orthogonalEdgeStyle;rounded=0;orthogonalLoop=1;jettySize=auto;html=1;" parent="1" source="n-Uu8OFauGkaStc5CKsw-1" edge="1"><mxGeometry relative="1" as="geometry"><mxPoint x="430" y="-200" as="targetPoint"/></mxGeometry></mxCell><mxCell id="23" style="edgeStyle=orthogonalEdgeStyle;rounded=0;orthogonalLoop=1;jettySize=auto;html=1;" parent="1" source="n-Uu8OFauGkaStc5CKsw-1" edge="1"><mxGeometry relative="1" as="geometry"><mxPoint x="420" y="-200" as="targetPoint"/></mxGeometry></mxCell><mxCell id="n-Uu8OFauGkaStc5CKsw-1" value="&lt;font style=&quot;font-size: 16px;&quot;&gt;&lt;b&gt;Main&lt;/b&gt;&lt;/font&gt;" style="rounded=0;whiteSpace=wrap;html=1;" parent="1" vertex="1"><mxGeometry x="360" y="-290" width="120" height="60" as="geometry"/></mxCell><mxCell id="2" value="&lt;font style=&quot;font-size: 16px;&quot;&gt;&lt;b&gt;Routes&lt;/b&gt;&lt;/font&gt;" style="rounded=0;whiteSpace=wrap;html=1;" parent="1" vertex="1"><mxGeometry x="360" y="90" width="120" height="60" as="geometry"/></mxCell><mxCell id="3" value="&lt;font style=&quot;font-size: 16px;&quot;&gt;&lt;b&gt;Controller&lt;/b&gt;&lt;/font&gt;" style="rounded=0;whiteSpace=wrap;html=1;" parent="1" vertex="1"><mxGeometry x="360" y="200" width="120" height="60" as="geometry"/></mxCell><mxCell id="4" value="&lt;font style=&quot;font-size: 16px;&quot;&gt;&lt;b&gt;Entities&lt;/b&gt;&lt;/font&gt;" style="rounded=0;whiteSpace=wrap;html=1;" parent="1" vertex="1"><mxGeometry x="130" y="160" width="120" height="60" as="geometry"/></mxCell><mxCell id="5" value="&lt;font style=&quot;font-size: 16px;&quot;&gt;&lt;b&gt;DTO&lt;/b&gt;&lt;/font&gt;" style="rounded=0;whiteSpace=wrap;html=1;" parent="1" vertex="1"><mxGeometry x="130" y="250" width="120" height="60" as="geometry"/></mxCell><mxCell id="6" value="&lt;b&gt;&lt;font style=&quot;font-size: 16px;&quot;&gt;CONTROLLER&lt;/font&gt;&lt;/b&gt;" style="rounded=1;whiteSpace=wrap;html=1;fillColor=#1ba1e2;fontColor=#ffffff;strokeColor=#006EAF;" parent="1" vertex="1"><mxGeometry x="80" y="20" width="680" height="40" as="geometry"/></mxCell><mxCell id="8" value="&lt;b&gt;&lt;font style=&quot;font-size: 16px;&quot;&gt;SERVICE&lt;/font&gt;&lt;/b&gt;" style="rounded=1;whiteSpace=wrap;html=1;fillColor=#60a917;fontColor=#ffffff;strokeColor=#2D7600;" parent="1" vertex="1"><mxGeometry x="80" y="-160" width="680" height="40" as="geometry"/></mxCell><mxCell id="9" value="DB" style="shape=cylinder3;whiteSpace=wrap;html=1;boundedLbl=1;backgroundOutline=1;size=15;fontSize=16;fillColor=#6a00ff;fontColor=#ffffff;strokeColor=#3700CC;" parent="1" vertex="1"><mxGeometry x="380" y="330" width="80" height="120" as="geometry"/></mxCell><mxCell id="10" value="&lt;b&gt;&lt;font style=&quot;font-size: 16px;&quot;&gt;MODEL&lt;/font&gt;&lt;/b&gt;" style="rounded=1;whiteSpace=wrap;html=1;fillColor=#fa6800;fontColor=#000000;strokeColor=#C73500;" parent="1" vertex="1"><mxGeometry x="90" y="490" width="680" height="40" as="geometry"/></mxCell><mxCell id="25" value="&lt;font style=&quot;font-size: 16px;&quot;&gt;&lt;b&gt;Service&lt;/b&gt;&lt;/font&gt;" style="rounded=0;whiteSpace=wrap;html=1;" parent="1" vertex="1"><mxGeometry x="360" y="-90" width="120" height="60" as="geometry"/></mxCell></root></mxGraphModel></diagram></mxfile>